<?xml version="1.0" encoding="UTF-8"?>
<svg id="Layer_2" data-name="Layer 2" xmlns="http://www.w3.org/2000/svg" viewBox="0 0 968.84 226.09">
  <defs>
    <style>
      .cls-1 {
        fill: #0378ea;
      }
    </style>
  </defs>
  <g id="Layer_2-2" data-name="Layer 2">
    <g>
      <polygon class="cls-1" points="376.12 84.37 376.12 159.41 440.5 123 376.12 84.37"/>
      <polygon class="cls-1" points="433.4 141.64 463.15 124.33 491.12 187.38 451.6 187.38 433.4 141.64"/>
      <polygon class="cls-1" points="410.31 89.25 386.33 31.97 407.2 0 459.15 115.89 410.31 89.25"/>
      <g>
        <path d="M582.67,118.97l45.3,64.29h-35.47l-27.91-39.58-28.82,39.58h-32.03l45.3-62-42.78-61.09h35.23l25.63,36.38,26.53-36.38h32.26l-43.24,58.8Z"/>
        <path d="M716.96,167.47c-4.43,6.56-9.88,11.33-16.37,14.3-6.48,2.98-14.37,4.46-23.67,4.46-5.95,0-11.6-.84-16.93-2.51-5.34-1.68-10.03-4.04-14.07-7.09-4.05-3.04-7.29-6.82-9.73-11.32-2.44-4.5-3.66-9.5-3.66-14.99,0-7.32,1.95-13.46,5.84-18.41,3.89-4.96,9.37-9.04,16.47-12.24,7.09-3.2,15.63-5.8,25.63-7.78,9.99-1.97,21-3.66,33.06-5.03v-2.29c0-4.73-.61-8.73-1.83-12.01-1.22-3.29-2.86-5.91-4.92-7.89-2.06-1.98-4.54-3.4-7.44-4.24-2.9-.84-6.02-1.26-9.37-1.26-6.87,0-12.55,1.6-17.04,4.8-4.51,3.2-6.91,8.24-7.21,15.1h-29.52c.61-6.1,2.33-11.7,5.15-16.81,2.82-5.11,6.64-9.53,11.44-13.27,4.8-3.73,10.44-6.67,16.93-8.81,6.48-2.13,13.61-3.2,21.38-3.2s14.72.88,21.28,2.63c6.55,1.75,12.28,4.68,17.16,8.81,4.88,4.11,8.69,9.64,11.44,16.59,2.75,6.94,4.11,15.59,4.11,25.96,0,.91-.04,2.56-.11,4.92-.07,2.37-.11,5.07-.11,8.13s-.04,6.22-.11,9.5c-.08,3.28-.12,6.29-.12,9.03,0,9.77.31,17.7.92,23.79.61,6.11,1.52,11.75,2.74,16.93h-29.05c-.46-1.98-.88-4.35-1.26-7.09-.38-2.75-.73-5.64-1.02-8.69ZM714.44,126.97c-8.84.92-16.39,1.91-22.65,2.98-6.26,1.07-11.37,2.4-15.32,4-3.97,1.6-6.87,3.58-8.69,5.95-1.83,2.36-2.75,5.22-2.75,8.57,0,4.43,1.75,8.24,5.26,11.44,3.51,3.2,8.84,4.8,16.01,4.8,9.91,0,17.08-2.75,21.51-8.23,4.42-5.49,6.63-13.27,6.63-23.34v-6.18Z"/>
        <path d="M841.87,90.6c-2.29-.31-4.46-.49-6.52-.58-2.06-.07-4.24-.11-6.53-.11-3.97,0-7.51.42-10.63,1.26-3.13.84-5.84,2.33-8.13,4.46-2.29,2.14-4.04,5.07-5.26,8.82-1.23,3.73-1.83,8.5-1.83,14.3v64.51h-31.57V60.17h31.11v21.5c3.51-7.62,8.01-13.07,13.5-16.36,5.49-3.28,11.82-4.92,18.99-4.92,1.06,0,2.21.04,3.43.11s2.36.2,3.43.34v29.74Z"/>
        <path d="M937.51,167.47c-4.43,6.56-9.88,11.33-16.37,14.3-6.48,2.98-14.37,4.46-23.67,4.46-5.95,0-11.6-.84-16.93-2.51-5.34-1.68-10.03-4.04-14.07-7.09-4.05-3.04-7.29-6.82-9.73-11.32-2.44-4.5-3.66-9.5-3.66-14.99,0-7.32,1.95-13.46,5.84-18.41,3.89-4.96,9.37-9.04,16.47-12.24s15.63-5.8,25.63-7.78c9.99-1.97,21-3.66,33.06-5.03v-2.29c0-4.73-.61-8.73-1.83-12.01-1.22-3.29-2.86-5.91-4.92-7.89-2.06-1.98-4.54-3.4-7.44-4.24-2.9-.84-6.02-1.26-9.37-1.26-6.87,0-12.55,1.6-17.04,4.8-4.51,3.2-6.91,8.24-7.21,15.1h-29.52c.61-6.1,2.33-11.7,5.15-16.81,2.82-5.11,6.64-9.53,11.44-13.27,4.8-3.73,10.44-6.67,16.93-8.81,6.48-2.13,13.61-3.2,21.38-3.2s14.72.88,21.28,2.63c6.55,1.75,12.28,4.68,17.16,8.81,4.88,4.11,8.69,9.64,11.44,16.59,2.75,6.94,4.11,15.59,4.11,25.96,0,.91-.04,2.56-.11,4.92-.07,2.37-.11,5.07-.11,8.13s-.04,6.22-.11,9.5c-.08,3.28-.12,6.29-.12,9.03,0,9.77.31,17.7.92,23.79.61,6.11,1.52,11.75,2.74,16.93h-29.05c-.46-1.98-.88-4.35-1.26-7.09-.38-2.75-.73-5.64-1.02-8.69ZM934.98,126.97c-8.84.92-16.39,1.91-22.65,2.98-6.26,1.07-11.37,2.4-15.32,4-3.97,1.6-6.87,3.58-8.69,5.95-1.83,2.36-2.75,5.22-2.75,8.57,0,4.43,1.75,8.24,5.26,11.44,3.51,3.2,8.84,4.8,16.01,4.8,9.91,0,17.08-2.75,21.51-8.23,4.42-5.49,6.63-13.27,6.63-23.34v-6.18Z"/>
      </g>
      <polygon points="285.09 187.38 323.72 187.38 407.2 0 369.9 0 285.09 187.38"/>
      <g>
        <path d="M21.32,185.1H0V59.08h21.32v18.97c3.59-5.93,8.43-10.93,14.52-14.99,6.09-4.06,13.9-6.09,23.43-6.09s17.45,1.96,23.31,5.86c5.86,3.91,10.19,9.37,13,16.4,5-7.81,11.09-13.47,18.27-16.98,7.18-3.51,15.23-5.27,24.13-5.27,7.34,0,13.59,1.17,18.74,3.51,5.15,2.34,9.37,5.66,12.65,9.96,3.28,4.3,5.66,9.41,7.15,15.34,1.48,5.94,2.22,12.5,2.22,19.68v79.64h-21.32v-73.32c0-4.84-.32-9.45-.94-13.82-.63-4.37-1.91-8.24-3.86-11.59-1.96-3.36-4.69-6.01-8.2-7.96-3.51-1.95-8.16-2.93-13.94-2.93-9.22,0-16.6,3.48-22.13,10.42-5.55,6.95-8.32,17.22-8.32,30.8v68.4h-21.32v-73.32c0-4.84-.32-9.45-.94-13.82-.63-4.37-1.91-8.24-3.86-11.59-1.96-3.36-4.69-6.01-8.2-7.96-3.52-1.95-8.16-2.93-13.94-2.93-9.22,0-16.6,3.48-22.14,10.42-5.54,6.95-8.32,17.22-8.32,30.8v68.4Z"/>
        <path d="M301.7,59.08l-44.97,131.41c-2.34,6.87-4.61,12.57-6.79,17.1-2.19,4.53-4.84,8.16-7.96,10.89-3.13,2.73-6.99,4.69-11.59,5.86-4.61,1.17-10.42,1.76-17.45,1.76h-11.01v-17.8h8.67c3.43,0,6.52-.16,9.25-.47,2.73-.32,5.11-1.13,7.15-2.46,2.03-1.33,3.86-3.36,5.5-6.09,1.64-2.73,3.16-6.6,4.57-11.59l.94-2.58-45.44-126.02h23.66l32.09,97.21,31.15-97.21h22.25Z"/>
      </g>
    </g>
  </g>
</svg>